<svg width="147" height="44" viewBox="0 0 147 44" fill="none" xmlns="http://www.w3.org/2000/svg">
<path d="M29.42 43H25.34L23.54 40.36C20.98 42.6 18.18 43.72 15.14 43.72C10.62 43.72 7.04 42.36 4.4 39.64C1.8 36.88 0.5 33.16 0.5 28.48C0.5 25.44 1.08 22.76 2.24 20.44C3.44 18.12 5.16 16.32 7.4 15.04C9.64 13.76 12.3 13.12 15.38 13.12C16.34 13.12 17.36 13.3 18.44 13.66C19.52 13.98 20.56 14.44 21.56 15.04V1.3L29.42 0.639998V43ZM15.44 37.06C16.48 37.06 17.48 36.86 18.44 36.46C19.44 36.06 20.48 35.46 21.56 34.66V22.24C20.52 21.36 19.52 20.74 18.56 20.38C17.6 19.98 16.56 19.78 15.44 19.78C13.32 19.78 11.64 20.6 10.4 22.24C9.16 23.84 8.54 25.92 8.54 28.48C8.54 31.04 9.14 33.12 10.34 34.72C11.58 36.28 13.28 37.06 15.44 37.06ZM50.3759 43.72C47.2559 43.72 44.5159 43.1 42.1559 41.86C39.8359 40.62 38.0359 38.86 36.7559 36.58C35.4759 34.26 34.8359 31.56 34.8359 28.48C34.8359 25.4 35.4759 22.7 36.7559 20.38C38.0359 18.06 39.8359 16.28 42.1559 15.04C44.5159 13.76 47.2559 13.12 50.3759 13.12C53.4959 13.12 56.2159 13.74 58.5359 14.98C60.8959 16.22 62.7159 18 63.9959 20.32C65.2759 22.6 65.9159 25.28 65.9159 28.36C65.9159 31.44 65.2759 34.14 63.9959 36.46C62.7159 38.78 60.8959 40.58 58.5359 41.86C56.2159 43.1 53.4959 43.72 50.3759 43.72ZM57.8759 28.36C57.8759 25.84 57.1759 23.78 55.7759 22.18C54.3759 20.58 52.5759 19.78 50.3759 19.78C48.2159 19.78 46.4159 20.6 44.9759 22.24C43.5759 23.88 42.8759 25.96 42.8759 28.48C42.8759 31 43.5759 33.06 44.9759 34.66C46.3759 36.26 48.1759 37.06 50.3759 37.06C52.5359 37.06 54.3159 36.24 55.7159 34.6C57.1559 32.96 57.8759 30.88 57.8759 28.36ZM68.9375 13.9H92.2175L92.6375 18.34L77.9975 36.7H92.6375L93.2375 43H69.2375L68.2175 38.86L82.6775 20.32H70.4375L68.9375 13.9ZM110.179 13.12C113.099 13.12 115.559 13.8 117.559 15.16C119.559 16.52 121.039 18.36 121.999 20.68C122.959 22.96 123.439 25.52 123.439 28.36V30.76H103.819C104.219 32.8 105.079 34.36 106.399 35.44C107.759 36.52 109.819 37.06 112.579 37.06C114.179 37.06 115.619 36.84 116.899 36.4C118.179 35.96 119.559 35.32 121.039 34.48L123.319 40.12C121.839 41.28 120.239 42.18 118.519 42.82C116.799 43.42 114.759 43.72 112.399 43.72C106.879 43.72 102.679 42.38 99.7991 39.7C96.9591 36.98 95.5391 33.24 95.5391 28.48C95.5391 25.4 96.1191 22.7 97.2791 20.38C98.4791 18.06 100.179 16.28 102.379 15.04C104.579 13.76 107.179 13.12 110.179 13.12ZM109.999 19.78C108.399 19.78 107.059 20.28 105.979 21.28C104.899 22.24 104.199 23.66 103.879 25.54H116.059C115.659 23.62 114.939 22.18 113.899 21.22C112.899 20.26 111.599 19.78 109.999 19.78ZM146.338 20.14C145.018 20.14 143.378 20.62 141.418 21.58C139.498 22.54 137.698 23.76 136.018 25.24V43H128.218V13.9H132.298L134.878 18.76C136.278 17.52 137.918 16.4 139.798 15.4C141.678 14.4 143.338 13.9 144.778 13.9L146.338 20.14Z" fill="#FDAC13"/>
</svg>
